<svg width="44" height="44" viewBox="0 0 44 44" fill="none" xmlns="http://www.w3.org/2000/svg">
<mask id="mask0_6592_35440" style="mask-type:alpha" maskUnits="userSpaceOnUse" x="0" y="0" width="44" height="44">
<rect x="1.75" y="1.75" width="40.5" height="40.5" fill="#F6F9FF" stroke="#626262" stroke-width="3.5"/>
</mask>
<g mask="url(#mask0_6592_35440)">
<rect x="8.55664" y="8.55566" width="31.7778" height="33" rx="5" fill="#FFE9BE"/>
<path d="M10.3898 2.44434H6.44531C4.23617 2.44434 2.44531 4.2352 2.44531 6.44434V37.5554C2.44531 39.7646 4.23618 41.5554 6.44531 41.5554H37.5564C39.7656 41.5554 41.5564 39.7646 41.5564 37.5554V6.44434C41.5564 4.2352 39.7656 2.44434 37.5564 2.44434H33.612" stroke="#080808" stroke-width="3.5" stroke-linecap="round"/>
<path d="M26.3628 8.55545C26.3628 9.52195 27.1463 10.3054 28.1128 10.3054C29.0793 10.3054 29.8628 9.52195 29.8628 8.55545H26.3628ZM14.1406 8.55545C14.1406 9.52195 14.9241 10.3054 15.8906 10.3054C16.8571 10.3054 17.6406 9.52195 17.6406 8.55545H14.1406ZM18.8906 4.19434H25.1128V0.694336H18.8906V4.19434ZM26.3628 5.44434V8.55545H29.8628V5.44434H26.3628ZM14.1406 5.44434V8.55545H17.6406V5.44434H14.1406ZM25.1128 4.19434C25.8032 4.19434 26.3628 4.75398 26.3628 5.44434H29.8628C29.8628 2.82098 27.7362 0.694336 25.1128 0.694336V4.19434ZM18.8906 0.694336C16.2673 0.694336 14.1406 2.82098 14.1406 5.44434H17.6406C17.6406 4.75398 18.2003 4.19434 18.8906 4.19434V0.694336Z" fill="#080808"/>
<path d="M28.1113 18.333L22.0002 23.2219" stroke="#080808" stroke-width="3.5" stroke-linecap="round" stroke-linejoin="round"/>
<path d="M15.8906 29.333H28.1128" stroke="#080808" stroke-width="3.5" stroke-linecap="round" stroke-linejoin="round"/>
<path d="M15.8906 18.333H28.1128" stroke="#080808" stroke-width="3.5" stroke-linecap="round" stroke-linejoin="round"/>
</g>
</svg>
