<svg width="44" height="44" viewBox="0 0 44 44" fill="none" xmlns="http://www.w3.org/2000/svg">
<ellipse cx="22" cy="36" rx="17" ry="4" fill="#FFE9BE"/>
<path d="M16 14.5C16 9.80558 19.8056 6 24.5 6C29.1944 6 33 9.80558 33 14.5V16.8422C33 19.3704 32.1165 21.8191 30.5023 23.7648L26.0393 29.1446C25.2395 30.1086 23.7605 30.1086 22.9607 29.1446L18.4977 23.7648C16.8835 21.8191 16 19.3704 16 16.8422V14.5Z" fill="#FFE9BE"/>
<mask id="mask0_6592_35459" style="mask-type:alpha" maskUnits="userSpaceOnUse" x="0" y="0" width="44" height="44">
<rect width="44" height="44" fill="#F6F9FF"/>
</mask>
<g mask="url(#mask0_6592_35459)">
<path d="M34 14.2727C34 20.4985 28.75 26.9545 22 34C15.25 26.9545 10 20.4985 10 14.2727C10 8.04697 15.3726 3 22 3C28.6274 3 34 8.04697 34 14.2727Z" stroke="#080808" stroke-width="3" stroke-linejoin="round"/>
<path d="M27 14.5C27 17.2614 24.7614 19.5 22 19.5C19.2386 19.5 17 17.2614 17 14.5C17 11.7386 19.2386 9.5 22 9.5C24.7614 9.5 27 11.7386 27 14.5Z" stroke="#080808" stroke-width="3" stroke-linejoin="round"/>
<path d="M8.29769 32.4298C9.08735 32.1794 9.52446 31.3362 9.27401 30.5465C9.02356 29.7569 8.18038 29.3197 7.39072 29.5702L8.29769 32.4298ZM36.6093 29.5702C35.8196 29.3197 34.9764 29.7569 34.726 30.5465C34.4755 31.3362 34.9127 32.1794 35.7023 32.4298L36.6093 29.5702ZM39.5 34.6012C39.5 34.7657 39.4015 35.168 38.6139 35.7515C37.8449 36.3213 36.6342 36.8906 34.997 37.3905C31.7407 38.3848 27.1469 39 22 39V42C27.3465 42 32.2528 41.3652 35.8731 40.2598C37.6742 39.7098 39.246 39.0169 40.3998 38.162C41.5352 37.3208 42.5 36.1361 42.5 34.6012H39.5ZM22 39C16.8531 39 12.2593 38.3848 9.00301 37.3905C7.36583 36.8906 6.15509 36.3213 5.38607 35.7515C4.59855 35.168 4.5 34.7657 4.5 34.6012H1.5C1.5 36.1361 2.46478 37.3208 3.60015 38.162C4.75405 39.0169 6.32579 39.7098 8.12693 40.2598C11.7472 41.3652 16.6535 42 22 42V39ZM4.5 34.6012C4.5 34.5966 4.50032 34.5847 4.50836 34.5605C4.51697 34.5345 4.53661 34.4882 4.58093 34.4218C4.67371 34.2828 4.85416 34.0866 5.1757 33.8524C5.82642 33.3784 6.86691 32.8836 8.29769 32.4298L7.39072 29.5702C5.80922 30.0718 4.42761 30.6858 3.4093 31.4276C2.42538 32.1443 1.5 33.1965 1.5 34.6012H4.5ZM35.7023 32.4298C37.1331 32.8836 38.1736 33.3784 38.8243 33.8524C39.1458 34.0866 39.3263 34.2828 39.4191 34.4218C39.4634 34.4882 39.483 34.5345 39.4916 34.5605C39.4997 34.5847 39.5 34.5966 39.5 34.6012H42.5C42.5 33.1965 41.5746 32.1443 40.5907 31.4276C39.5724 30.6858 38.1908 30.0718 36.6093 29.5702L35.7023 32.4298Z" fill="#080808"/>
</g>
</svg>
