<svg width="44" height="44" viewBox="0 0 44 44" fill="none" xmlns="http://www.w3.org/2000/svg">
<path d="M12.0339 22.4011L23.1619 33.6389C24.4495 34.9391 26.5505 34.9391 27.8381 33.6389L38.966 22.4011C42.308 19.0262 42.308 13.5892 38.966 10.2142C35.5774 6.79212 30.0476 6.79212 26.6589 10.2142L25.5 11.3846L24.3411 10.2142C20.9524 6.79212 15.4226 6.79212 12.034 10.2142C8.69196 13.5892 8.69195 19.0262 12.0339 22.4011Z" fill="#FFE9BE"/>
<path d="M30 32C30 32 27.3331 34.6669 24.8281 37.1719C23.2661 38.7339 20.7337 38.7337 19.1717 37.1717L5.5 23.5C1.35787 19.3579 1.35786 12.6421 5.5 8.5V8.5C9.64214 4.35786 16.3579 4.35786 20.5 8.5L22 10L23.5 8.5C27.6421 4.35786 34.3579 4.35786 38.5 8.5V8.5C42 12 43 17 39 22.5" stroke="#080808" stroke-width="4" stroke-linecap="round" stroke-linejoin="round"/>
<path d="M27.5 34.5L32.0572 39.0572C32.5779 39.5779 33.4221 39.5779 33.9428 39.0572L38.5 34.5C39.8807 33.1193 39.8807 30.8807 38.5 29.5C37.1193 28.1193 34.8807 28.1193 33.5 29.5L33 30L32.5 29.5C31.1193 28.1193 28.8807 28.1193 27.5 29.5C26.1193 30.8807 26.1193 33.1193 27.5 34.5Z" fill="#FFE9BE" stroke="#080808" stroke-width="4" stroke-linejoin="round"/>
<rect x="14" y="15" width="4" height="5" rx="2" fill="#553700"/>
<rect x="26" y="15" width="4" height="5" rx="2" fill="#553700"/>
<path d="M18.5352 24C19.2268 25.1956 20.5195 26 22 26C23.4806 26 24.7733 25.1956 25.4649 24" stroke="#553700" stroke-width="3" stroke-linecap="round" stroke-linejoin="round"/>
</svg>
