<svg width="44" height="44" viewBox="0 0 44 44" fill="none" xmlns="http://www.w3.org/2000/svg">
<mask id="mask0_6592_35428" style="mask-type:alpha" maskUnits="userSpaceOnUse" x="0" y="0" width="44" height="44">
<rect x="1.75" y="1.75" width="40.5" height="40.5" fill="#F6F9FF" stroke="#FECE00" stroke-width="3.5"/>
</mask>
<g mask="url(#mask0_6592_35428)">
<circle cx="14.6673" cy="14.6668" r="7.33333" fill="#FFE9BE"/>
<ellipse cx="34.222" cy="32.9998" rx="7.33334" ry="7.33334" fill="#FFE9BE"/>
<path d="M11.2034 21.6996C16.2675 22.2641 20.8304 18.6164 21.3948 13.5523C21.9593 8.4882 18.3116 3.92535 13.2475 3.3609C8.18339 2.79645 3.62055 6.44413 3.05609 11.5082C2.7736 14.0427 3.54611 16.4515 5.02318 18.2965" stroke="#080808" stroke-width="3.5" stroke-linecap="round"/>
<path d="M11 22V39.6" stroke="#080808" stroke-width="3.5" stroke-linecap="round"/>
<path d="M20.8984 30.8003H3.29843" stroke="#080808" stroke-width="3.5" stroke-linecap="round"/>
<path d="M32.3884 21.3889L32.3883 3.30029L27.9883 7.70029" stroke="#080808" stroke-width="3.5" stroke-linecap="round" stroke-linejoin="round"/>
<path d="M33 3.30029L41.3109 11.6112" stroke="#080808" stroke-width="3.5" stroke-linecap="round"/>
<path d="M32.4368 21.6415C37.8082 22.0548 41.8275 26.7443 41.4142 32.1157C41.0009 37.4871 36.3114 41.5065 30.94 41.0931C25.5686 40.6798 21.5492 35.9903 21.9625 30.6189C22.1634 28.0088 23.3739 25.7179 25.1818 24.0998" stroke="#080808" stroke-width="3.5" stroke-linecap="round"/>
</g>
</svg>
