<svg width="44" height="44" viewBox="0 0 44 44" fill="none" xmlns="http://www.w3.org/2000/svg">
<mask id="mask0_6592_35419" style="mask-type:alpha" maskUnits="userSpaceOnUse" x="0" y="0" width="44" height="44">
<rect width="44" height="44" fill="#FECE00"/>
</mask>
<g mask="url(#mask0_6592_35419)">
<ellipse cx="25.6671" cy="22.0001" rx="13.4444" ry="13.4444" fill="#FFE9BE"/>
<path d="M26.9168 33.7114C26.0056 34.0335 25.5279 35.0333 25.85 35.9446C26.1721 36.8558 27.1719 37.3335 28.0832 37.0114L26.9168 33.7114ZM15.9168 37.0114C16.8281 37.3335 17.8279 36.8558 18.15 35.9446C18.4721 35.0333 17.9944 34.0335 17.0832 33.7114L15.9168 37.0114ZM7.25 19.8003C7.25 11.6541 13.8538 5.05029 22 5.05029V1.55029C11.9208 1.55029 3.75 9.72109 3.75 19.8003H7.25ZM22 5.05029C30.1462 5.05029 36.75 11.6541 36.75 19.8003H40.25C40.25 9.72109 32.0792 1.55029 22 1.55029V5.05029ZM36.75 19.8003C36.75 26.2198 32.648 31.6857 26.9168 33.7114L28.0832 37.0114C35.1691 34.5069 40.25 27.7492 40.25 19.8003H36.75ZM17.0832 33.7114C11.352 31.6857 7.25 26.2198 7.25 19.8003H3.75C3.75 27.7492 8.83093 34.5069 15.9168 37.0114L17.0832 33.7114Z" fill="#080808"/>
<path d="M27.672 34.0361C26.7254 33.8408 25.7998 34.4499 25.6045 35.3964C25.4092 36.343 26.0183 37.2687 26.9649 37.4639L27.672 34.0361ZM38.7482 42.6597C39.5268 43.2324 40.6222 43.0655 41.1948 42.2869C41.7675 41.5083 41.6005 40.4129 40.822 39.8403L38.7482 42.6597ZM2.81467 39.8403C2.03609 40.4129 1.86917 41.5083 2.44183 42.2869C3.01449 43.0655 4.10988 43.2324 4.88846 42.6597L2.81467 39.8403ZM16.6718 37.4639C17.6184 37.2687 18.2274 36.343 18.0321 35.3964C17.8369 34.4499 16.9112 33.8408 15.9647 34.0361L16.6718 37.4639ZM26.9649 37.4639C31.3709 38.3728 35.3823 40.1841 38.7482 42.6597L40.822 39.8403C37.0449 37.0622 32.5662 35.0457 27.672 34.0361L26.9649 37.4639ZM4.88846 42.6597C8.2543 40.1841 12.2658 38.3728 16.6718 37.4639L15.9647 34.0361C11.0705 35.0457 6.59173 37.0622 2.81467 39.8403L4.88846 42.6597Z" fill="#080808"/>
<path d="M28.959 23.0996C27.7232 25.7011 25.0717 27.4996 22 27.4996C18.9284 27.4996 16.2768 25.7011 15.041 23.0996" stroke="#080808" stroke-width="3.5" stroke-linecap="round"/>
</g>
</svg>
